<svg width="80" height="80" viewBox="0 0 80 80" fill="none" xmlns="http://www.w3.org/2000/svg">
<circle cx="40" cy="40" r="40" fill="#F7BB00"/>
<path d="M22.72 30.96L22.32 51.28L25.68 51.6C25.68 52.3467 25.4533 53.1467 25 54H15.8L15.68 52.6C17.12 52.12 18.3467 51.8 19.36 51.64C19.3067 49.9067 19.2133 46.3333 19.08 40.92C18.9733 35.5067 18.88 31.32 18.8 28.36C17.7867 28.2 16.5867 27.88 15.2 27.4L15.32 26H23.24L37.84 49.32L37.16 28.36C36.1733 28.1733 34.9867 27.8533 33.6 27.4L33.72 26H43.72C44.1733 26.8533 44.4 27.6533 44.4 28.4C43.0667 28.5067 42 28.56 41.2 28.56L40.8 54H36.92L22.72 30.96ZM57.0063 51.76C58.1796 51.76 60.0196 51.2 62.5263 50.08C63.0329 50.7733 63.2996 51.3867 63.3263 51.92C61.9663 52.72 60.6329 53.3467 59.3263 53.8C58.0196 54.2533 57.0863 54.48 56.5263 54.48C53.4329 54.48 51.0729 53.56 49.4463 51.72C47.8196 49.8533 47.0063 47.2533 47.0063 43.92C47.0063 40.5867 47.7929 37.9733 49.3663 36.08C50.9663 34.16 53.3529 33.2 56.5263 33.2C58.9796 33.2 60.8463 34.08 62.1263 35.84C63.4329 37.6 64.0863 39.96 64.0863 42.92C63.8729 43.2933 63.6996 43.5467 63.5663 43.68L50.6862 43.48C50.7129 46.1733 51.1796 48.2267 52.0863 49.64C53.0196 51.0533 54.6596 51.76 57.0063 51.76ZM60.4463 41.2C60.4463 39.44 60.1263 38.08 59.4863 37.12C58.8463 36.1333 57.7796 35.64 56.2863 35.64C54.7929 35.64 53.4596 35.92 52.2863 36.48C51.4863 38.08 50.9796 39.72 50.7663 41.4C52.8729 41.3733 56.0996 41.3067 60.4463 41.2Z" fill="white"/>
</svg>
